<svg xmlns="http://www.w3.org/2000/svg" xmlns:xlink="http://www.w3.org/1999/xlink" version="1.1" width="512" height="512" viewBox="0 0 512 512" xml:space="preserve">
<desc>Created with Fabric.js 3.5.0</desc>
<defs>
</defs>
<rect x="0" y="0" width="100%" height="100%" fill="rgba(51,51,51,0)"/>
<g transform="matrix(1 0 0 1 256 214.475)" style="" id="232909">
		
<path xml:space="preserve" font-family="Roboto" font-size="142" font-weight="bold" style="stroke: none; stroke-width: 0; stroke-dasharray: none; stroke-linecap: butt; stroke-dashoffset: 0; stroke-linejoin: miter; stroke-miterlimit: 4; is-custom-font: none; font-file-url: none; fill: rgb(20,45,157); fill-rule: nonzero; opacity: 1; white-space: pre;" d="M-76.03-15.44L-76.03 0.86L-115.96 0.86L-115.96 27.90L-69.09 27.90L-69.09 44.61L-136.77 44.61L-136.77-56.35L-69.23-56.35L-69.23-39.50L-115.96-39.50L-115.96-15.44L-76.03-15.44ZM-56.89-56.35L-29.71-56.35L-3.78 16.87L22.01-56.35L49.33-56.35L49.33 44.61L28.46 44.61L28.46 17.01L30.54-30.62L3.29 44.61L-10.99 44.61L-38.17-30.55L-36.09 17.01L-36.09 44.61L-56.89 44.61L-56.89-56.35ZM119.85 18.12L119.85 18.12Q119.85 12.23 115.69 9.07Q111.53 5.92 100.71 2.42Q89.89-1.08 83.58-4.48L83.58-4.48Q66.39-13.77 66.39-29.51L66.39-29.51Q66.39-37.69 71.00-44.11Q75.61-50.52 84.24-54.13Q92.88-57.73 103.62-57.73L103.62-57.73Q114.44-57.73 122.90-53.81Q131.36-49.90 136.04-42.76Q140.72-35.61 140.72-26.53L140.72-26.53L119.92-26.53Q119.92-33.46 115.55-37.31Q111.18-41.16 103.28-41.16L103.28-41.16Q95.65-41.16 91.42-37.94Q87.19-34.71 87.19-29.44L87.19-29.44Q87.19-24.52 92.15-21.19Q97.10-17.86 106.74-14.95L106.74-14.95Q124.49-9.61 132.60-1.71Q140.72 6.20 140.72 17.98L140.72 17.98Q140.72 31.09 130.80 38.54Q120.89 45.99 104.11 45.99L104.11 45.99Q92.46 45.99 82.89 41.73Q73.32 37.47 68.30 30.05Q63.27 22.63 63.27 12.85L63.27 12.85L84.14 12.85Q84.14 29.56 104.11 29.56L104.11 29.56Q111.53 29.56 115.69 26.55Q119.85 23.53 119.85 18.12Z"/></g>
<g transform="matrix(1 0 0 1 249 288.7954)" style="" id="334980">
		
<path xml:space="preserve" font-family="Roboto" font-size="30" font-weight="bold" style="stroke: none; stroke-width: 0; stroke-dasharray: none; stroke-linecap: butt; stroke-dashoffset: 0; stroke-linejoin: miter; stroke-miterlimit: 4; is-custom-font: none; font-file-url: none; fill: rgb(59,57,57); fill-rule: nonzero; opacity: 1; white-space: pre;" d="M-198.08-3.26L-198.08 0.18L-206.52 0.18L-206.52 5.89L-196.62 5.89L-196.62 9.42L-210.92 9.42L-210.92-11.90L-196.65-11.90L-196.65-8.34L-206.52-8.34L-206.52-3.26L-198.08-3.26ZM-194.32-6.43L-190.35-6.43L-190.22-4.65Q-188.53-6.72-185.66-6.72L-185.66-6.72Q-182.60-6.72-181.46-4.30L-181.46-4.30Q-179.79-6.72-176.70-6.72L-176.70-6.72Q-174.12-6.72-172.86-5.22Q-171.60-3.72-171.60-0.70L-171.60-0.70L-171.60 9.42L-175.85 9.42L-175.85-0.68Q-175.85-2.03-176.37-2.65Q-176.90-3.28-178.23-3.28L-178.23-3.28Q-180.14-3.28-180.87-1.46L-180.87-1.46L-180.86 9.42L-185.09 9.42L-185.09-0.67Q-185.09-2.05-185.63-2.66Q-186.17-3.28-187.48-3.28L-187.48-3.28Q-189.28-3.28-190.09-1.78L-190.09-1.78L-190.09 9.42L-194.32 9.42L-194.32-6.43ZM-154.08 1.43L-154.08 1.65Q-154.08 5.31-155.74 7.51Q-157.40 9.72-160.23 9.72L-160.23 9.72Q-162.63 9.72-164.11 8.05L-164.11 8.05L-164.11 15.52L-168.35 15.52L-168.35-6.43L-164.42-6.43L-164.27-4.87Q-162.74-6.72-160.26-6.72L-160.26-6.72Q-157.33-6.72-155.71-4.55Q-154.08-2.38-154.08 1.43L-154.08 1.43ZM-158.31 1.34L-158.31 1.34Q-158.31-0.87-159.10-2.07Q-159.88-3.28-161.37-3.28L-161.37-3.28Q-163.37-3.28-164.11-1.75L-164.11-1.75L-164.11 4.74Q-163.34 6.30-161.35 6.30L-161.35 6.30Q-158.31 6.30-158.31 1.34ZM-146.99-13.08L-146.99 9.42L-151.24 9.42L-151.24-13.08L-146.99-13.08ZM-144.16 1.54L-144.16 1.35Q-144.16-1.01-143.25-2.85Q-142.35-4.70-140.64-5.71Q-138.93-6.72-136.68-6.72L-136.68-6.72Q-133.47-6.72-131.44-4.76Q-129.41-2.79-129.18 0.58L-129.18 0.58L-129.15 1.66Q-129.15 5.31-131.18 7.51Q-133.22 9.72-136.65 9.72Q-140.08 9.72-142.12 7.52Q-144.16 5.32-144.16 1.54L-144.16 1.54ZM-139.93 1.66L-139.93 1.66Q-139.93 3.92-139.08 5.11Q-138.23 6.30-136.65 6.30L-136.65 6.30Q-135.11 6.30-134.25 5.12Q-133.38 3.95-133.38 1.35L-133.38 1.35Q-133.38-0.86-134.25-2.07Q-135.11-3.29-136.68-3.29L-136.68-3.29Q-138.23-3.29-139.08-2.08Q-139.93-0.87-139.93 1.66ZM-123.79-6.43L-120.84 3.43L-117.91-6.43L-113.37-6.43L-119.74 11.89L-120.10 12.72Q-121.52 15.83-124.78 15.83L-124.78 15.83Q-125.71 15.83-126.66 15.55L-126.66 15.55L-126.66 12.34L-126.01 12.35Q-124.81 12.35-124.22 11.99Q-123.63 11.62-123.29 10.77L-123.29 10.77L-122.79 9.47L-128.34-6.43L-123.79-6.43ZM-104.60 9.72L-104.60 9.72Q-108.08 9.72-110.27 7.58Q-112.46 5.44-112.46 1.88L-112.46 1.88L-112.46 1.47Q-112.46-0.92-111.54-2.80Q-110.62-4.68-108.93-5.70Q-107.23-6.72-105.07-6.72L-105.07-6.72Q-101.81-6.72-99.95-4.67Q-98.08-2.62-98.08 1.15L-98.08 1.15L-98.08 2.88L-108.17 2.88Q-107.97 4.43-106.93 5.37Q-105.90 6.30-104.32 6.30L-104.32 6.30Q-101.87 6.30-100.50 4.53L-100.50 4.53L-98.42 6.86Q-99.37 8.21-100.99 8.96Q-102.62 9.72-104.60 9.72ZM-105.08-3.29L-105.08-3.29Q-106.34-3.29-107.12-2.44Q-107.91-1.59-108.13-0.01L-108.13-0.01L-102.24-0.01L-102.24-0.35Q-102.27-1.75-103.00-2.52Q-103.73-3.29-105.08-3.29ZM-88.38 9.72L-88.38 9.72Q-91.87 9.72-94.06 7.58Q-96.25 5.44-96.25 1.88L-96.25 1.88L-96.25 1.47Q-96.25-0.92-95.32-2.80Q-94.40-4.68-92.71-5.70Q-91.02-6.72-88.85-6.72L-88.85-6.72Q-85.60-6.72-83.73-4.67Q-81.86-2.62-81.86 1.15L-81.86 1.15L-81.86 2.88L-91.96 2.88Q-91.75 4.43-90.72 5.37Q-89.69 6.30-88.10 6.30L-88.10 6.30Q-85.66 6.30-84.28 4.53L-84.28 4.53L-82.20 6.86Q-83.15 8.21-84.78 8.96Q-86.40 9.72-88.38 9.72ZM-88.86-3.29L-88.86-3.29Q-90.12-3.29-90.91-2.44Q-91.69-1.59-91.91-0.01L-91.91-0.01L-86.02-0.01L-86.02-0.35Q-86.05-1.75-86.78-2.52Q-87.52-3.29-88.86-3.29ZM-71.71-11.90L-65.97-11.90L-60.49 3.56L-55.04-11.90L-49.27-11.90L-49.27 9.42L-53.68 9.42L-53.68 3.59L-53.24-6.47L-59.00 9.42L-62.01 9.42L-67.76-6.45L-67.32 3.59L-67.32 9.42L-71.71 9.42L-71.71-11.90ZM-32.25 9.42L-36.53 9.42Q-36.82 8.85-36.95 8.00L-36.95 8.00Q-38.49 9.72-40.95 9.72L-40.95 9.72Q-43.28 9.72-44.81 8.37Q-46.34 7.02-46.34 4.97L-46.34 4.97Q-46.34 2.45-44.47 1.10Q-42.60-0.24-39.07-0.26L-39.07-0.26L-37.13-0.26L-37.13-1.17Q-37.13-2.27-37.69-2.92Q-38.25-3.58-39.47-3.58L-39.47-3.58Q-40.54-3.58-41.15-3.07Q-41.76-2.56-41.76-1.66L-41.76-1.66L-45.99-1.66Q-45.99-3.04-45.14-4.21Q-44.29-5.39-42.74-6.05Q-41.18-6.72-39.25-6.72L-39.25-6.72Q-36.32-6.72-34.60-5.25Q-32.88-3.77-32.88-1.11L-32.88-1.11L-32.88 5.76Q-32.86 8.02-32.25 9.18L-32.25 9.18L-32.25 9.42ZM-40.03 6.48L-40.03 6.48Q-39.09 6.48-38.30 6.06Q-37.51 5.64-37.13 4.94L-37.13 4.94L-37.13 2.22L-38.71 2.22Q-41.89 2.22-42.09 4.41L-42.09 4.41L-42.11 4.66Q-42.11 5.45-41.55 5.97Q-40.99 6.48-40.03 6.48ZM-29.71-6.43L-25.73-6.43L-25.60-4.59Q-23.90-6.72-21.04-6.72L-21.04-6.72Q-18.52-6.72-17.29-5.24Q-16.06-3.76-16.03-0.82L-16.03-0.82L-16.03 9.42L-20.27 9.42L-20.27-0.71Q-20.27-2.06-20.85-2.67Q-21.44-3.28-22.80-3.28L-22.80-3.28Q-24.59-3.28-25.48-1.75L-25.48-1.75L-25.48 9.42L-29.71 9.42L-29.71-6.43ZM0.64 9.42L-3.64 9.42Q-3.93 8.85-4.06 8.00L-4.06 8.00Q-5.60 9.72-8.06 9.72L-8.06 9.72Q-10.39 9.72-11.92 8.37Q-13.45 7.02-13.45 4.97L-13.45 4.97Q-13.45 2.45-11.59 1.10Q-9.72-0.24-6.19-0.26L-6.19-0.26L-4.24-0.26L-4.24-1.17Q-4.24-2.27-4.80-2.92Q-5.37-3.58-6.58-3.58L-6.58-3.58Q-7.65-3.58-8.26-3.07Q-8.87-2.56-8.87-1.66L-8.87-1.66L-13.10-1.66Q-13.10-3.04-12.25-4.21Q-11.40-5.39-9.85-6.05Q-8.30-6.72-6.36-6.72L-6.36-6.72Q-3.44-6.72-1.71-5.25Q0.01-3.77 0.01-1.11L0.01-1.11L0.01 5.76Q0.02 8.02 0.64 9.18L0.64 9.18L0.64 9.42ZM-7.14 6.48L-7.14 6.48Q-6.20 6.48-5.41 6.06Q-4.62 5.64-4.24 4.94L-4.24 4.94L-4.24 2.22L-5.82 2.22Q-9.00 2.22-9.21 4.41L-9.21 4.41L-9.22 4.66Q-9.22 5.45-8.66 5.97Q-8.11 6.48-7.14 6.48ZM2.64 1.56L2.64 1.38Q2.64-2.27 4.38-4.49Q6.12-6.72 9.06-6.72L9.06-6.72Q11.67-6.72 13.12-4.93L13.12-4.93L13.29-6.43L17.13-6.43L17.13 8.90Q17.13 10.98 16.19 12.52Q15.24 14.05 13.53 14.86Q11.81 15.66 9.51 15.66L9.51 15.66Q7.77 15.66 6.12 14.97Q4.46 14.27 3.61 13.17L3.61 13.17L5.49 10.60Q7.07 12.37 9.32 12.37L9.32 12.37Q11.01 12.37 11.95 11.47Q12.88 10.57 12.88 8.91L12.88 8.91L12.88 8.06Q11.42 9.72 9.03 9.72L9.03 9.72Q6.17 9.72 4.41 7.48Q2.64 5.25 2.64 1.56L2.64 1.56ZM6.88 1.69L6.88 1.69Q6.88 3.84 7.74 5.07Q8.61 6.29 10.11 6.29L10.11 6.29Q12.05 6.29 12.88 4.84L12.88 4.84L12.88-1.83Q12.03-3.28 10.14-3.28L10.14-3.28Q8.62-3.28 7.75-2.03Q6.88-0.79 6.88 1.69ZM27.68 9.72L27.68 9.72Q24.19 9.72 22.00 7.58Q19.81 5.44 19.81 1.88L19.81 1.88L19.81 1.47Q19.81-0.92 20.73-2.80Q21.66-4.68 23.35-5.70Q25.04-6.72 27.21-6.72L27.21-6.72Q30.46-6.72 32.33-4.67Q34.20-2.62 34.20 1.15L34.20 1.15L34.20 2.88L24.10 2.88Q24.31 4.43 25.34 5.37Q26.37 6.30 27.96 6.30L27.96 6.30Q30.40 6.30 31.78 4.53L31.78 4.53L33.86 6.86Q32.91 8.21 31.28 8.96Q29.66 9.72 27.68 9.72ZM27.19-3.29L27.19-3.29Q25.94-3.29 25.15-2.44Q24.37-1.59 24.15-0.01L24.15-0.01L30.04-0.01L30.04-0.35Q30.01-1.75 29.27-2.52Q28.54-3.29 27.19-3.29ZM36.60-6.43L40.57-6.43L40.70-4.65Q42.39-6.72 45.26-6.72L45.26-6.72Q48.32-6.72 49.46-4.30L49.46-4.30Q51.13-6.72 54.22-6.72L54.22-6.72Q56.80-6.72 58.06-5.22Q59.32-3.72 59.32-0.70L59.32-0.70L59.32 9.42L55.07 9.42L55.07-0.68Q55.07-2.03 54.54-2.65Q54.02-3.28 52.68-3.28L52.68-3.28Q50.78-3.28 50.05-1.46L50.05-1.46L50.06 9.42L45.83 9.42L45.83-0.67Q45.83-2.05 45.29-2.66Q44.74-3.28 43.44-3.28L43.44-3.28Q41.64-3.28 40.83-1.78L40.83-1.78L40.83 9.42L36.60 9.42L36.60-6.43ZM69.87 9.72L69.87 9.72Q66.38 9.72 64.19 7.58Q62.00 5.44 62.00 1.88L62.00 1.88L62.00 1.47Q62.00-0.92 62.92-2.80Q63.85-4.68 65.54-5.70Q67.23-6.72 69.40-6.72L69.40-6.72Q72.65-6.72 74.52-4.67Q76.38-2.62 76.38 1.15L76.38 1.15L76.38 2.88L66.29 2.88Q66.50 4.43 67.53 5.37Q68.56 6.30 70.14 6.30L70.14 6.30Q72.59 6.30 73.97 4.53L73.97 4.53L76.05 6.86Q75.10 8.21 73.47 8.96Q71.84 9.72 69.87 9.72ZM69.38-3.29L69.38-3.29Q68.12-3.29 67.34-2.44Q66.56-1.59 66.34-0.01L66.34-0.01L72.22-0.01L72.22-0.35Q72.19-1.75 71.46-2.52Q70.73-3.29 69.38-3.29ZM78.70-6.43L82.68-6.43L82.81-4.59Q84.51-6.72 87.37-6.72L87.37-6.72Q89.89-6.72 91.12-5.24Q92.35-3.76 92.38-0.82L92.38-0.82L92.38 9.42L88.15 9.42L88.15-0.71Q88.15-2.06 87.56-2.67Q86.98-3.28 85.61-3.28L85.61-3.28Q83.83-3.28 82.93-1.75L82.93-1.75L82.93 9.42L78.70 9.42L78.70-6.43ZM96.42-10.32L100.66-10.32L100.66-6.43L103.37-6.43L103.37-3.32L100.66-3.32L100.66 4.59Q100.66 5.47 100.99 5.85Q101.33 6.23 102.28 6.23L102.28 6.23Q102.99 6.23 103.53 6.13L103.53 6.13L103.53 9.34Q102.28 9.72 100.96 9.72L100.96 9.72Q96.51 9.72 96.42 5.22L96.42 5.22L96.42-3.32L94.11-3.32L94.11-6.43L96.42-6.43L96.42-10.32ZM124.53 3.83L124.53 3.83Q124.53 2.58 123.65 1.92Q122.78 1.25 120.49 0.51Q118.21-0.23 116.87-0.95L116.87-0.95Q113.24-2.91 113.24-6.23L113.24-6.23Q113.24-7.96 114.21-9.32Q115.19-10.67 117.01-11.44Q118.84-12.20 121.11-12.20L121.11-12.20Q123.39-12.20 125.18-11.37Q126.97-10.54 127.95-9.03Q128.94-7.52 128.94-5.61L128.94-5.61L124.55-5.61Q124.55-7.07 123.63-7.88Q122.70-8.70 121.03-8.70L121.03-8.70Q119.42-8.70 118.53-8.01Q117.63-7.33 117.63-6.22L117.63-6.22Q117.63-5.18 118.68-4.48Q119.73-3.77 121.77-3.16L121.77-3.16Q125.52-2.03 127.23-0.36Q128.94 1.31 128.94 3.80L128.94 3.80Q128.94 6.57 126.85 8.14Q124.75 9.72 121.21 9.72L121.21 9.72Q118.75 9.72 116.73 8.82Q114.70 7.92 113.64 6.35Q112.58 4.78 112.58 2.72L112.58 2.72L116.99 2.72Q116.99 6.25 121.21 6.25L121.21 6.25Q122.78 6.25 123.65 5.61Q124.53 4.97 124.53 3.83ZM134.61-6.43L137.56 3.43L140.49-6.43L145.03-6.43L138.65 11.89L138.30 12.72Q136.88 15.83 133.62 15.83L133.62 15.83Q132.69 15.83 131.74 15.55L131.74 15.55L131.74 12.34L132.39 12.35Q133.59 12.35 134.18 11.99Q134.77 11.62 135.11 10.77L135.11 10.77L135.61 9.47L130.06-6.43L134.61-6.43ZM155.28 5.04L155.28 5.04Q155.28 4.27 154.51 3.82Q153.74 3.37 152.04 3.02L152.04 3.02Q146.39 1.84 146.39-1.78L146.39-1.78Q146.39-3.89 148.14-5.30Q149.89-6.72 152.72-6.72L152.72-6.72Q155.73-6.72 157.54-5.30Q159.35-3.88 159.35-1.61L159.35-1.61L155.12-1.61Q155.12-2.51 154.53-3.11Q153.95-3.70 152.70-3.70L152.70-3.70Q151.63-3.70 151.05-3.22Q150.46-2.73 150.46-1.99L150.46-1.99Q150.46-1.28 151.13-0.85Q151.79-0.42 153.38-0.10Q154.96 0.21 156.04 0.61L156.04 0.61Q159.40 1.84 159.40 4.87L159.40 4.87Q159.40 7.04 157.54 8.38Q155.68 9.72 152.73 9.72L152.73 9.72Q150.74 9.72 149.19 9.01Q147.65 8.30 146.77 7.06Q145.89 5.82 145.89 4.39L145.89 4.39L149.90 4.39Q149.96 5.51 150.74 6.11Q151.52 6.71 152.82 6.71L152.82 6.71Q154.04 6.71 154.66 6.25Q155.28 5.79 155.28 5.04ZM162.96-10.32L167.19-10.32L167.19-6.43L169.90-6.43L169.90-3.32L167.19-3.32L167.19 4.59Q167.19 5.47 167.53 5.85Q167.86 6.23 168.82 6.23L168.82 6.23Q169.52 6.23 170.06 6.13L170.06 6.13L170.06 9.34Q168.82 9.72 167.50 9.72L167.50 9.72Q163.04 9.72 162.96 5.22L162.96 5.22L162.96-3.32L160.64-3.32L160.64-6.43L162.96-6.43L162.96-10.32ZM179.55 9.72L179.55 9.72Q176.07 9.72 173.88 7.58Q171.69 5.44 171.69 1.88L171.69 1.88L171.69 1.47Q171.69-0.92 172.61-2.80Q173.53-4.68 175.22-5.70Q176.92-6.72 179.08-6.72L179.08-6.72Q182.34-6.72 184.20-4.67Q186.07-2.62 186.07 1.15L186.07 1.15L186.07 2.88L175.98 2.88Q176.18 4.43 177.22 5.37Q178.25 6.30 179.83 6.30L179.83 6.30Q182.28 6.30 183.65 4.53L183.65 4.53L185.73 6.86Q184.78 8.21 183.16 8.96Q181.53 9.72 179.55 9.72ZM179.07-3.29L179.07-3.29Q177.81-3.29 177.03-2.44Q176.24-1.59 176.02-0.01L176.02-0.01L181.91-0.01L181.91-0.35Q181.88-1.75 181.15-2.52Q180.42-3.29 179.07-3.29ZM188.47-6.43L192.44-6.43L192.58-4.65Q194.26-6.72 197.13-6.72L197.13-6.72Q200.19-6.72 201.34-4.30L201.34-4.30Q203.01-6.72 206.10-6.72L206.10-6.72Q208.67-6.72 209.93-5.22Q211.19-3.72 211.19-0.70L211.19-0.70L211.19 9.42L206.95 9.42L206.95-0.68Q206.95-2.03 206.42-2.65Q205.89-3.28 204.56-3.28L204.56-3.28Q202.65-3.28 201.92-1.46L201.92-1.46L201.94 9.42L197.70 9.42L197.70-0.67Q197.70-2.05 197.16-2.66Q196.62-3.28 195.31-3.28L195.31-3.28Q193.51-3.28 192.71-1.78L192.71-1.78L192.71 9.42L188.47 9.42L188.47-6.43Z"/></g>
</svg>